<?xml version="1.0" encoding="utf-8"?>
<!-- Uploaded to: SVG Repo, www.svgrepo.com, Generator: SVG Repo Mixer Tools -->
<svg fill="#000000" width="800px" height="800px" viewBox="0 0 32 32" version="1.1" xmlns="http://www.w3.org/2000/svg">
<title>youtubemusic</title>
<path d="M13.106 20.424v-8.847l7.663 4.424zM16 8.217c-4.298 0-7.783 3.484-7.783 7.783s3.484 7.783 7.783 7.783c4.298 0 7.783-3.484 7.783-7.783v0c-0.007-4.296-3.487-7.776-7.782-7.783h-0.001zM16 24.877c0 0 0 0-0 0-4.903 0-8.877-3.975-8.877-8.877s3.975-8.877 8.877-8.877c4.903 0 8.877 3.975 8.877 8.877 0 0 0 0 0 0v0c0 0 0 0.001 0 0.001 0 4.902-3.974 8.877-8.877 8.877-0 0-0.001 0-0.001 0h0zM16 1.004c0 0 0 0-0 0-8.282 0-14.996 6.714-14.996 14.996s6.714 14.996 14.996 14.996c8.282 0 14.996-6.714 14.996-14.996v0c-0.003-8.281-6.715-14.993-14.995-14.996h-0z"></path>
</svg>